# FreeCAD v0.21 build2 Arch module
# http://www.freecad.org
mtllib Cylinder_Single_Rod.mtl
o Cylinder
usemtl color_cccccc
v 2.5 -0.0 0.0
v 2.427355 0.598289 0.0
v 2.5 -0.0 100.0
v 2.427355 0.598289 100.0
v 2.21364 1.161808 0.0
v 2.21364 1.161808 100.0
v 1.871277 1.657807 0.0
v 1.871277 1.657807 100.0
v 1.420162 2.05746 0.0
v 1.420162 2.05746 100.0
v 0.886512 2.337541 0.0
v 0.886512 2.337541 100.0
v 0.301342 2.481772 0.0
v 0.301342 2.481772 100.0
v -0.301342 2.481772 100.0
v -0.301342 2.481772 0.0
v -0.886512 2.337541 0.0
v -0.886512 2.337541 100.0
v -1.420162 2.05746 100.0
v -1.420162 2.05746 0.0
v -1.871277 1.657807 100.0
v -1.871277 1.657807 0.0
v -2.21364 1.161808 0.0
v -2.21364 1.161808 100.0
v -2.427355 0.598289 0.0
v -2.427355 0.598289 100.0
v -2.5 0.0 0.0
v -2.5 0.0 100.0
v -2.427355 -0.598289 0.0
v -2.427355 -0.598289 100.0
v -2.21364 -1.161808 100.0
v -2.21364 -1.161808 0.0
v -1.871277 -1.657807 0.0
v -1.871277 -1.657807 100.0
v -1.420162 -2.05746 0.0
v -1.420162 -2.05746 100.0
v -0.886512 -2.337541 100.0
v -0.886512 -2.337541 0.0
v -0.301342 -2.481772 0.0
v -0.301342 -2.481772 100.0
v 0.301342 -2.481772 0.0
v 0.301342 -2.481772 100.0
v 0.886512 -2.337541 0.0
v 0.886512 -2.337541 100.0
v 1.420162 -2.05746 0.0
v 1.420162 -2.05746 100.0
v 1.871277 -1.657807 0.0
v 1.871277 -1.657807 100.0
v 2.21364 -1.161808 0.0
v 2.21364 -1.161808 100.0
v 2.427355 -0.598289 0.0
v 2.427355 -0.598289 100.0
vn 0.992709 0.120537 -0.0
vn 0.992709 0.120537 0.0
vn 0.935016 0.354605 0.0
vn 0.935016 0.354605 -0.0
vn 0.822984 0.568065 0.0
vn 0.822984 0.568065 -0.0
vn 0.663123 0.748511 0.0
vn 0.663123 0.748511 -0.0
vn 0.464723 0.885456 0.0
vn 0.464723 0.885456 -0.0
vn 0.239316 0.970942 0.0
vn 0.0 1.0 0.0
vn 0.239316 0.970942 -0.0
vn 0.0 1.0 0.0
vn -0.239316 0.970942 0.0
vn -0.464723 0.885456 0.0
vn -0.239316 0.970942 0.0
vn -0.663123 0.748511 0.0
vn -0.464723 0.885456 0.0
vn -0.663123 0.748511 0.0
vn -0.822984 0.568065 0.0
vn -0.822984 0.568065 0.0
vn -0.935016 0.354605 0.0
vn -0.935016 0.354605 0.0
vn -0.992709 0.120537 0.0
vn -0.992709 0.120537 0.0
vn -0.992709 -0.120537 0.0
vn -0.992709 -0.120537 0.0
vn -0.935016 -0.354605 -0.0
vn -0.935016 -0.354605 0.0
vn -0.822984 -0.568065 0.0
vn -0.822984 -0.568065 0.0
vn -0.663123 -0.748511 0.0
vn -0.464723 -0.885456 -0.0
vn -0.663123 -0.748511 0.0
vn -0.464723 -0.885456 0.0
vn -0.239316 -0.970942 0.0
vn -0.239316 -0.970942 0.0
vn 0.0 -1.0 0.0
vn 0.0 -1.0 0.0
vn 0.239316 -0.970942 0.0
vn 0.239316 -0.970942 0.0
vn 0.464723 -0.885456 0.0
vn 0.464723 -0.885456 0.0
vn 0.663123 -0.748511 0.0
vn 0.663123 -0.748511 0.0
vn 0.822984 -0.568065 0.0
vn 0.822984 -0.568065 0.0
vn 0.935016 -0.354605 0.0
vn 0.935016 -0.354605 0.0
vn 0.992709 -0.120537 0.0
vn 0.992709 -0.120537 0.0
vn 0.0 0.0 -1.0
vn 0.0 0.0 -1.0
vn 0.0 0.0 -1.0
vn 0.0 0.0 -1.0
vn 0.0 0.0 -1.0
vn 0.0 -0.0 -1.0
vn 0.0 -0.0 -1.0
vn 0.0 0.0 -1.0
vn -0.0 -0.0 -1.0
vn 0.0 -0.0 -1.0
vn -0.0 -0.0 -1.0
vn 0.0 0.0 -1.0
vn 0.0 0.0 -1.0
vn 0.0 -0.0 -1.0
vn 0.0 -0.0 -1.0
vn 0.0 0.0 -1.0
vn 0.0 0.0 -1.0
vn 0.0 0.0 -1.0
vn 0.0 0.0 -1.0
vn 0.0 0.0 -1.0
vn 0.0 0.0 -1.0
vn 0.0 0.0 -1.0
vn 0.0 -0.0 -1.0
vn -0.0 -0.0 -1.0
vn 0.0 0.0 1.0
vn 0.0 0.0 1.0
vn 0.0 0.0 1.0
vn 0.0 0.0 1.0
vn 0.0 0.0 1.0
vn 0.0 0.0 1.0
vn 0.0 0.0 1.0
vn 0.0 0.0 1.0
vn 0.0 0.0 1.0
vn 0.0 0.0 1.0
vn 0.0 0.0 1.0
vn 0.0 0.0 1.0
vn 0.0 0.0 1.0
vn 0.0 0.0 1.0
vn 0.0 0.0 1.0
vn 0.0 0.0 1.0
vn 0.0 0.0 1.0
vn 0.0 0.0 1.0
vn 0.0 0.0 1.0
vn 0.0 0.0 1.0
vn 0.0 0.0 1.0
vn 0.0 0.0 1.0
vn 0.0 0.0 1.0
vn 0.0 0.0 1.0
f 1//1 2//1 3//1 
f 3//2 2//2 4//2 
f 4//3 5//3 6//3 
f 2//4 5//4 4//4 
f 6//5 7//5 8//5 
f 5//6 7//6 6//6 
f 8//7 9//7 10//7 
f 7//8 9//8 8//8 
f 10//9 11//9 12//9 
f 9//10 11//10 10//10 
f 12//11 13//11 14//11 
f 14//12 13//12 15//12 
f 11//13 13//13 12//13 
f 13//14 16//14 15//14 
f 15//15 17//15 18//15 
f 18//16 17//16 19//16 
f 16//17 17//17 15//17 
f 19//18 20//18 21//18 
f 17//19 20//19 19//19 
f 20//20 22//20 21//20 
f 22//21 23//21 21//21 
f 21//22 23//22 24//22 
f 23//23 25//23 24//23 
f 24//24 25//24 26//24 
f 25//25 27//25 26//25 
f 26//26 27//26 28//26 
f 27//27 29//27 28//27 
f 28//28 29//28 30//28 
f 30//29 29//29 31//29 
f 29//30 32//30 31//30 
f 32//31 33//31 31//31 
f 31//32 33//32 34//32 
f 34//33 35//33 36//33 
f 36//34 35//34 37//34 
f 33//35 35//35 34//35 
f 35//36 38//36 37//36 
f 37//37 39//37 40//37 
f 38//38 39//38 37//38 
f 40//39 41//39 42//39 
f 39//40 41//40 40//40 
f 42//41 43//41 44//41 
f 41//42 43//42 42//42 
f 44//43 45//43 46//43 
f 43//44 45//44 44//44 
f 46//45 47//45 48//45 
f 45//46 47//46 46//46 
f 48//47 49//47 50//47 
f 47//48 49//48 48//48 
f 50//49 51//49 52//49 
f 49//50 51//50 50//50 
f 52//51 1//51 3//51 
f 51//52 1//52 52//52 
f 33//53 38//53 35//53 
f 39//54 43//54 41//54 
f 43//55 49//55 45//55 
f 45//56 49//56 47//56 
f 39//57 49//57 43//57 
f 20//58 17//58 22//58 
f 22//59 17//59 23//59 
f 49//60 1//60 51//60 
f 13//61 11//61 16//61 
f 16//62 9//62 17//62 
f 11//63 9//63 16//63 
f 1//64 7//64 2//64 
f 2//65 7//65 5//65 
f 23//66 7//66 25//66 
f 25//67 7//67 27//67 
f 27//68 7//68 29//68 
f 29//69 7//69 32//69 
f 32//70 7//70 33//70 
f 38//71 7//71 39//71 
f 33//72 7//72 38//72 
f 49//73 7//73 1//73 
f 39//74 7//74 49//74 
f 17//75 7//75 23//75 
f 9//76 7//76 17//76 
f 37//77 34//77 36//77 
f 44//78 40//78 42//78 
f 50//79 44//79 46//79 
f 50//80 46//80 48//80 
f 50//81 40//81 44//81 
f 18//82 19//82 21//82 
f 18//83 21//83 24//83 
f 3//84 50//84 52//84 
f 12//85 14//85 15//85 
f 10//86 15//86 18//86 
f 10//87 12//87 15//87 
f 8//88 3//88 4//88 
f 8//89 4//89 6//89 
f 8//90 24//90 26//90 
f 8//91 26//91 28//91 
f 8//92 28//92 30//92 
f 8//93 30//93 31//93 
f 8//94 31//94 34//94 
f 8//95 37//95 40//95 
f 8//96 34//96 37//96 
f 8//97 50//97 3//97 
f 8//98 40//98 50//98 
f 8//99 18//99 24//99 
f 8//100 10//100 18//100 
