solid CATIA STL
  facet normal  9.927089e-001  0.000000e+000 -1.205366e-001
    outer loop
      vertex  2.600000e+001  1.154000e+003  0.000000e+000
      vertex  2.600000e+001  0.000000e+000  0.000000e+000
      vertex  2.524449e+001  1.154000e+003 -6.222207e+000
    endloop
  endfacet
  facet normal  9.927089e-001  0.000000e+000 -1.205366e-001
    outer loop
      vertex  2.524449e+001  1.154000e+003 -6.222207e+000
      vertex  2.600000e+001  0.000000e+000  0.000000e+000
      vertex  2.524449e+001  0.000000e+000 -6.222207e+000
    endloop
  endfacet
  facet normal  9.350162e-001  0.000000e+000 -3.546050e-001
    outer loop
      vertex  2.524449e+001  1.154000e+003 -6.222207e+000
      vertex  2.524449e+001  0.000000e+000 -6.222207e+000
      vertex  2.302186e+001  1.154000e+003 -1.208280e+001
    endloop
  endfacet
  facet normal  9.350162e-001  0.000000e+000 -3.546050e-001
    outer loop
      vertex  2.302186e+001  1.154000e+003 -1.208280e+001
      vertex  2.524449e+001  0.000000e+000 -6.222207e+000
      vertex  2.302186e+001  0.000000e+000 -1.208280e+001
    endloop
  endfacet
  facet normal  8.229838e-001  0.000000e+000 -5.680647e-001
    outer loop
      vertex  2.302186e+001  1.154000e+003 -1.208280e+001
      vertex  2.302186e+001  0.000000e+000 -1.208280e+001
      vertex  1.946128e+001  1.154000e+003 -1.724119e+001
    endloop
  endfacet
  facet normal  8.229838e-001  0.000000e+000 -5.680647e-001
    outer loop
      vertex  1.946128e+001  1.154000e+003 -1.724119e+001
      vertex  2.302186e+001  0.000000e+000 -1.208280e+001
      vertex  1.946128e+001  0.000000e+000 -1.724119e+001
    endloop
  endfacet
  facet normal  6.631228e-001  0.000000e+000 -7.485107e-001
    outer loop
      vertex  1.946128e+001  1.154000e+003 -1.724119e+001
      vertex  1.946128e+001  0.000000e+000 -1.724119e+001
      vertex  1.476968e+001  1.154000e+003 -2.139758e+001
    endloop
  endfacet
  facet normal  6.631228e-001  0.000000e+000 -7.485107e-001
    outer loop
      vertex  1.476968e+001  1.154000e+003 -2.139758e+001
      vertex  1.946128e+001  0.000000e+000 -1.724119e+001
      vertex  1.476968e+001  0.000000e+000 -2.139758e+001
    endloop
  endfacet
  facet normal  4.647232e-001  0.000000e+000 -8.854560e-001
    outer loop
      vertex  1.476968e+001  1.154000e+003 -2.139758e+001
      vertex  1.476968e+001  0.000000e+000 -2.139758e+001
      vertex  9.219728e+000  1.154000e+003 -2.431042e+001
    endloop
  endfacet
  facet normal  4.647232e-001  0.000000e+000 -8.854560e-001
    outer loop
      vertex  9.219728e+000  1.154000e+003 -2.431042e+001
      vertex  1.476968e+001  0.000000e+000 -2.139758e+001
      vertex  9.219728e+000  0.000000e+000 -2.431042e+001
    endloop
  endfacet
  facet normal  2.393156e-001  0.000000e+000 -9.709420e-001
    outer loop
      vertex  9.219728e+000  1.154000e+003 -2.431042e+001
      vertex  9.219728e+000  0.000000e+000 -2.431042e+001
      vertex  3.133954e+000  1.154000e+003 -2.581043e+001
    endloop
  endfacet
  facet normal  2.393156e-001  0.000000e+000 -9.709420e-001
    outer loop
      vertex  3.133954e+000  1.154000e+003 -2.581043e+001
      vertex  9.219728e+000  0.000000e+000 -2.431042e+001
      vertex  3.133954e+000  0.000000e+000 -2.581043e+001
    endloop
  endfacet
  facet normal  0.000000e+000  0.000000e+000 -1.000000e+000
    outer loop
      vertex  3.133954e+000  1.154000e+003 -2.581043e+001
      vertex  3.133954e+000  0.000000e+000 -2.581043e+001
      vertex -3.133954e+000  1.154000e+003 -2.581043e+001
    endloop
  endfacet
  facet normal  0.000000e+000  0.000000e+000 -1.000000e+000
    outer loop
      vertex -3.133954e+000  1.154000e+003 -2.581043e+001
      vertex  3.133954e+000  0.000000e+000 -2.581043e+001
      vertex -3.133954e+000  0.000000e+000 -2.581043e+001
    endloop
  endfacet
  facet normal -2.393156e-001  0.000000e+000 -9.709420e-001
    outer loop
      vertex -3.133954e+000  1.154000e+003 -2.581043e+001
      vertex -3.133954e+000  0.000000e+000 -2.581043e+001
      vertex -9.219728e+000  1.154000e+003 -2.431042e+001
    endloop
  endfacet
  facet normal -2.393156e-001  -0.000000e+000 -9.709420e-001
    outer loop
      vertex -9.219728e+000  1.154000e+003 -2.431042e+001
      vertex -3.133954e+000  0.000000e+000 -2.581043e+001
      vertex -9.219728e+000  0.000000e+000 -2.431042e+001
    endloop
  endfacet
  facet normal -4.647232e-001  0.000000e+000 -8.854560e-001
    outer loop
      vertex -9.219728e+000  1.154000e+003 -2.431042e+001
      vertex -9.219728e+000  0.000000e+000 -2.431042e+001
      vertex -1.476968e+001  1.154000e+003 -2.139758e+001
    endloop
  endfacet
  facet normal -4.647232e-001  -0.000000e+000 -8.854560e-001
    outer loop
      vertex -1.476968e+001  1.154000e+003 -2.139758e+001
      vertex -9.219728e+000  0.000000e+000 -2.431042e+001
      vertex -1.476968e+001  0.000000e+000 -2.139758e+001
    endloop
  endfacet
  facet normal -6.631228e-001  0.000000e+000 -7.485107e-001
    outer loop
      vertex -1.476968e+001  1.154000e+003 -2.139758e+001
      vertex -1.476968e+001  0.000000e+000 -2.139758e+001
      vertex -1.946128e+001  1.154000e+003 -1.724119e+001
    endloop
  endfacet
  facet normal -6.631228e-001  -0.000000e+000 -7.485107e-001
    outer loop
      vertex -1.946128e+001  1.154000e+003 -1.724119e+001
      vertex -1.476968e+001  0.000000e+000 -2.139758e+001
      vertex -1.946128e+001  0.000000e+000 -1.724119e+001
    endloop
  endfacet
  facet normal -8.229838e-001  0.000000e+000 -5.680647e-001
    outer loop
      vertex -1.946128e+001  1.154000e+003 -1.724119e+001
      vertex -1.946128e+001  0.000000e+000 -1.724119e+001
      vertex -2.302186e+001  1.154000e+003 -1.208280e+001
    endloop
  endfacet
  facet normal -8.229838e-001  -0.000000e+000 -5.680647e-001
    outer loop
      vertex -2.302186e+001  1.154000e+003 -1.208280e+001
      vertex -1.946128e+001  0.000000e+000 -1.724119e+001
      vertex -2.302186e+001  0.000000e+000 -1.208280e+001
    endloop
  endfacet
  facet normal -9.350162e-001  0.000000e+000 -3.546050e-001
    outer loop
      vertex -2.302186e+001  1.154000e+003 -1.208280e+001
      vertex -2.302186e+001  0.000000e+000 -1.208280e+001
      vertex -2.524449e+001  1.154000e+003 -6.222207e+000
    endloop
  endfacet
  facet normal -9.350162e-001  -0.000000e+000 -3.546050e-001
    outer loop
      vertex -2.524449e+001  1.154000e+003 -6.222207e+000
      vertex -2.302186e+001  0.000000e+000 -1.208280e+001
      vertex -2.524449e+001  0.000000e+000 -6.222207e+000
    endloop
  endfacet
  facet normal -9.927089e-001  0.000000e+000 -1.205366e-001
    outer loop
      vertex -2.524449e+001  1.154000e+003 -6.222207e+000
      vertex -2.524449e+001  0.000000e+000 -6.222207e+000
      vertex -2.600000e+001  1.154000e+003 -8.362343e-015
    endloop
  endfacet
  facet normal -9.927089e-001  -0.000000e+000 -1.205366e-001
    outer loop
      vertex -2.600000e+001  1.154000e+003 -8.362343e-015
      vertex -2.524449e+001  0.000000e+000 -6.222207e+000
      vertex -2.600000e+001  0.000000e+000 -8.362343e-015
    endloop
  endfacet
  facet normal -9.927089e-001  0.000000e+000  1.205366e-001
    outer loop
      vertex -2.600000e+001  1.154000e+003 -8.362343e-015
      vertex -2.600000e+001  0.000000e+000 -8.362343e-015
      vertex -2.524449e+001  1.154000e+003  6.222207e+000
    endloop
  endfacet
  facet normal -9.927089e-001  0.000000e+000  1.205366e-001
    outer loop
      vertex -2.524449e+001  1.154000e+003  6.222207e+000
      vertex -2.600000e+001  0.000000e+000 -8.362343e-015
      vertex -2.524449e+001  0.000000e+000  6.222207e+000
    endloop
  endfacet
  facet normal -9.350162e-001  0.000000e+000  3.546050e-001
    outer loop
      vertex -2.524449e+001  1.154000e+003  6.222207e+000
      vertex -2.524449e+001  0.000000e+000  6.222207e+000
      vertex -2.302186e+001  1.154000e+003  1.208280e+001
    endloop
  endfacet
  facet normal -9.350162e-001  0.000000e+000  3.546050e-001
    outer loop
      vertex -2.302186e+001  1.154000e+003  1.208280e+001
      vertex -2.524449e+001  0.000000e+000  6.222207e+000
      vertex -2.302186e+001  0.000000e+000  1.208280e+001
    endloop
  endfacet
  facet normal -8.229838e-001  0.000000e+000  5.680647e-001
    outer loop
      vertex -2.302186e+001  1.154000e+003  1.208280e+001
      vertex -2.302186e+001  0.000000e+000  1.208280e+001
      vertex -1.946128e+001  1.154000e+003  1.724119e+001
    endloop
  endfacet
  facet normal -8.229838e-001  0.000000e+000  5.680647e-001
    outer loop
      vertex -1.946128e+001  1.154000e+003  1.724119e+001
      vertex -2.302186e+001  0.000000e+000  1.208280e+001
      vertex -1.946128e+001  0.000000e+000  1.724119e+001
    endloop
  endfacet
  facet normal -6.631228e-001  0.000000e+000  7.485107e-001
    outer loop
      vertex -1.946128e+001  1.154000e+003  1.724119e+001
      vertex -1.946128e+001  0.000000e+000  1.724119e+001
      vertex -1.476968e+001  1.154000e+003  2.139758e+001
    endloop
  endfacet
  facet normal -6.631228e-001  0.000000e+000  7.485107e-001
    outer loop
      vertex -1.476968e+001  1.154000e+003  2.139758e+001
      vertex -1.946128e+001  0.000000e+000  1.724119e+001
      vertex -1.476968e+001  0.000000e+000  2.139758e+001
    endloop
  endfacet
  facet normal -4.647232e-001  0.000000e+000  8.854560e-001
    outer loop
      vertex -1.476968e+001  1.154000e+003  2.139758e+001
      vertex -1.476968e+001  0.000000e+000  2.139758e+001
      vertex -9.219728e+000  1.154000e+003  2.431042e+001
    endloop
  endfacet
  facet normal -4.647232e-001  0.000000e+000  8.854560e-001
    outer loop
      vertex -9.219728e+000  1.154000e+003  2.431042e+001
      vertex -1.476968e+001  0.000000e+000  2.139758e+001
      vertex -9.219728e+000  0.000000e+000  2.431042e+001
    endloop
  endfacet
  facet normal -2.393156e-001  0.000000e+000  9.709420e-001
    outer loop
      vertex -9.219728e+000  1.154000e+003  2.431042e+001
      vertex -9.219728e+000  0.000000e+000  2.431042e+001
      vertex -3.133954e+000  1.154000e+003  2.581043e+001
    endloop
  endfacet
  facet normal -2.393156e-001  0.000000e+000  9.709420e-001
    outer loop
      vertex -3.133954e+000  1.154000e+003  2.581043e+001
      vertex -9.219728e+000  0.000000e+000  2.431042e+001
      vertex -3.133954e+000  0.000000e+000  2.581043e+001
    endloop
  endfacet
  facet normal  0.000000e+000  0.000000e+000  1.000000e+000
    outer loop
      vertex -3.133954e+000  1.154000e+003  2.581043e+001
      vertex -3.133954e+000  0.000000e+000  2.581043e+001
      vertex  3.133954e+000  1.154000e+003  2.581043e+001
    endloop
  endfacet
  facet normal  0.000000e+000  0.000000e+000  1.000000e+000
    outer loop
      vertex  3.133954e+000  1.154000e+003  2.581043e+001
      vertex -3.133954e+000  0.000000e+000  2.581043e+001
      vertex  3.133954e+000  0.000000e+000  2.581043e+001
    endloop
  endfacet
  facet normal  2.393156e-001  -0.000000e+000  9.709420e-001
    outer loop
      vertex  3.133954e+000  1.154000e+003  2.581043e+001
      vertex  3.133954e+000  0.000000e+000  2.581043e+001
      vertex  9.219728e+000  1.154000e+003  2.431042e+001
    endloop
  endfacet
  facet normal  2.393156e-001  0.000000e+000  9.709420e-001
    outer loop
      vertex  9.219728e+000  1.154000e+003  2.431042e+001
      vertex  3.133954e+000  0.000000e+000  2.581043e+001
      vertex  9.219728e+000  0.000000e+000  2.431042e+001
    endloop
  endfacet
  facet normal  4.647232e-001  -0.000000e+000  8.854560e-001
    outer loop
      vertex  9.219728e+000  1.154000e+003  2.431042e+001
      vertex  9.219728e+000  0.000000e+000  2.431042e+001
      vertex  1.476968e+001  1.154000e+003  2.139758e+001
    endloop
  endfacet
  facet normal  4.647232e-001  0.000000e+000  8.854560e-001
    outer loop
      vertex  1.476968e+001  1.154000e+003  2.139758e+001
      vertex  9.219728e+000  0.000000e+000  2.431042e+001
      vertex  1.476968e+001  0.000000e+000  2.139758e+001
    endloop
  endfacet
  facet normal  6.631228e-001  -0.000000e+000  7.485107e-001
    outer loop
      vertex  1.476968e+001  1.154000e+003  2.139758e+001
      vertex  1.476968e+001  0.000000e+000  2.139758e+001
      vertex  1.946128e+001  1.154000e+003  1.724119e+001
    endloop
  endfacet
  facet normal  6.631228e-001  0.000000e+000  7.485107e-001
    outer loop
      vertex  1.946128e+001  1.154000e+003  1.724119e+001
      vertex  1.476968e+001  0.000000e+000  2.139758e+001
      vertex  1.946128e+001  0.000000e+000  1.724119e+001
    endloop
  endfacet
  facet normal  8.229838e-001  -0.000000e+000  5.680647e-001
    outer loop
      vertex  1.946128e+001  1.154000e+003  1.724119e+001
      vertex  1.946128e+001  0.000000e+000  1.724119e+001
      vertex  2.302186e+001  1.154000e+003  1.208280e+001
    endloop
  endfacet
  facet normal  8.229838e-001  0.000000e+000  5.680647e-001
    outer loop
      vertex  2.302186e+001  1.154000e+003  1.208280e+001
      vertex  1.946128e+001  0.000000e+000  1.724119e+001
      vertex  2.302186e+001  0.000000e+000  1.208280e+001
    endloop
  endfacet
  facet normal  9.350162e-001  -0.000000e+000  3.546050e-001
    outer loop
      vertex  2.302186e+001  1.154000e+003  1.208280e+001
      vertex  2.302186e+001  0.000000e+000  1.208280e+001
      vertex  2.524449e+001  1.154000e+003  6.222207e+000
    endloop
  endfacet
  facet normal  9.350162e-001  0.000000e+000  3.546050e-001
    outer loop
      vertex  2.524449e+001  1.154000e+003  6.222207e+000
      vertex  2.302186e+001  0.000000e+000  1.208280e+001
      vertex  2.524449e+001  0.000000e+000  6.222207e+000
    endloop
  endfacet
  facet normal  9.927089e-001  -0.000000e+000  1.205366e-001
    outer loop
      vertex  2.524449e+001  1.154000e+003  6.222207e+000
      vertex  2.524449e+001  0.000000e+000  6.222207e+000
      vertex  2.600000e+001  1.154000e+003  0.000000e+000
    endloop
  endfacet
  facet normal  9.927089e-001  0.000000e+000  1.205366e-001
    outer loop
      vertex  2.600000e+001  1.154000e+003  0.000000e+000
      vertex  2.524449e+001  0.000000e+000  6.222207e+000
      vertex  2.600000e+001  0.000000e+000  0.000000e+000
    endloop
  endfacet
endsolid CATIA STL
