solid CATIA STL
  facet normal  0.000000e+000 -1.000000e+000  0.000000e+000
    outer loop
      vertex  2.524449e+001  1.154000e+003  6.222207e+000
      vertex  2.524449e+001  1.154000e+003 -6.222207e+000
      vertex  2.600000e+001  1.154000e+003 -4.181171e-015
    endloop
  endfacet
  facet normal  0.000000e+000 -1.000000e+000  0.000000e+000
    outer loop
      vertex -2.600000e+001  1.154000e+003 -9.954331e-015
      vertex -2.524449e+001  1.154000e+003 -6.222207e+000
      vertex -2.524449e+001  1.154000e+003  6.222207e+000
    endloop
  endfacet
  facet normal  0.000000e+000 -9.999999e-001  0.000000e+000
    outer loop
      vertex -2.524449e+001  1.154000e+003  6.222207e+000
      vertex -2.524449e+001  1.154000e+003 -6.222207e+000
      vertex -2.302186e+001  1.154000e+003 -1.208280e+001
    endloop
  endfacet
  facet normal  0.000000e+000 -1.000000e+000  0.000000e+000
    outer loop
      vertex -2.524449e+001  1.154000e+003  6.222207e+000
      vertex -2.302186e+001  1.154000e+003 -1.208280e+001
      vertex -2.302186e+001  1.154000e+003  1.208280e+001
    endloop
  endfacet
  facet normal  0.000000e+000 -9.999999e-001  0.000000e+000
    outer loop
      vertex -2.302186e+001  1.154000e+003  1.208280e+001
      vertex -2.302186e+001  1.154000e+003 -1.208280e+001
      vertex -1.946128e+001  1.154000e+003 -1.724119e+001
    endloop
  endfacet
  facet normal  0.000000e+000 -1.000000e+000  0.000000e+000
    outer loop
      vertex -2.302186e+001  1.154000e+003  1.208280e+001
      vertex -1.946128e+001  1.154000e+003 -1.724119e+001
      vertex -1.946128e+001  1.154000e+003  1.724119e+001
    endloop
  endfacet
  facet normal  0.000000e+000 -1.000000e+000  0.000000e+000
    outer loop
      vertex -1.946128e+001  1.154000e+003  1.724119e+001
      vertex -1.946128e+001  1.154000e+003 -1.724119e+001
      vertex -1.476968e+001  1.154000e+003 -2.139758e+001
    endloop
  endfacet
  facet normal  0.000000e+000 -1.000000e+000  0.000000e+000
    outer loop
      vertex -1.946128e+001  1.154000e+003  1.724119e+001
      vertex -1.476968e+001  1.154000e+003 -2.139758e+001
      vertex -1.476968e+001  1.154000e+003  2.139758e+001
    endloop
  endfacet
  facet normal  0.000000e+000 -1.000000e+000  0.000000e+000
    outer loop
      vertex -1.476968e+001  1.154000e+003  2.139758e+001
      vertex -1.476968e+001  1.154000e+003 -2.139758e+001
      vertex -9.219728e+000  1.154000e+003 -2.431042e+001
    endloop
  endfacet
  facet normal  0.000000e+000 -1.000000e+000  0.000000e+000
    outer loop
      vertex -1.476968e+001  1.154000e+003  2.139758e+001
      vertex -9.219728e+000  1.154000e+003 -2.431042e+001
      vertex -9.219728e+000  1.154000e+003  2.431042e+001
    endloop
  endfacet
  facet normal  0.000000e+000 -1.000000e+000  0.000000e+000
    outer loop
      vertex -9.219728e+000  1.154000e+003  2.431042e+001
      vertex -9.219728e+000  1.154000e+003 -2.431042e+001
      vertex -3.133954e+000  1.154000e+003 -2.581043e+001
    endloop
  endfacet
  facet normal  0.000000e+000 -1.000000e+000  0.000000e+000
    outer loop
      vertex -9.219728e+000  1.154000e+003  2.431042e+001
      vertex -3.133954e+000  1.154000e+003 -2.581043e+001
      vertex -3.133954e+000  1.154000e+003  2.581043e+001
    endloop
  endfacet
  facet normal  0.000000e+000 -1.000000e+000  0.000000e+000
    outer loop
      vertex -3.133954e+000  1.154000e+003  2.581043e+001
      vertex -3.133954e+000  1.154000e+003 -2.581043e+001
      vertex  3.133954e+000  1.154000e+003 -2.581043e+001
    endloop
  endfacet
  facet normal  0.000000e+000 -1.000000e+000  0.000000e+000
    outer loop
      vertex -3.133954e+000  1.154000e+003  2.581043e+001
      vertex  3.133954e+000  1.154000e+003 -2.581043e+001
      vertex  3.133954e+000  1.154000e+003  2.581043e+001
    endloop
  endfacet
  facet normal  0.000000e+000 -1.000000e+000  0.000000e+000
    outer loop
      vertex  3.133954e+000  1.154000e+003  2.581043e+001
      vertex  3.133954e+000  1.154000e+003 -2.581043e+001
      vertex  9.219728e+000  1.154000e+003 -2.431042e+001
    endloop
  endfacet
  facet normal  0.000000e+000 -1.000000e+000  0.000000e+000
    outer loop
      vertex  3.133954e+000  1.154000e+003  2.581043e+001
      vertex  9.219728e+000  1.154000e+003 -2.431042e+001
      vertex  9.219728e+000  1.154000e+003  2.431042e+001
    endloop
  endfacet
  facet normal  0.000000e+000 -1.000000e+000  0.000000e+000
    outer loop
      vertex  9.219728e+000  1.154000e+003  2.431042e+001
      vertex  9.219728e+000  1.154000e+003 -2.431042e+001
      vertex  1.476968e+001  1.154000e+003 -2.139758e+001
    endloop
  endfacet
  facet normal  0.000000e+000 -1.000000e+000  0.000000e+000
    outer loop
      vertex  9.219728e+000  1.154000e+003  2.431042e+001
      vertex  1.476968e+001  1.154000e+003 -2.139758e+001
      vertex  1.476968e+001  1.154000e+003  2.139758e+001
    endloop
  endfacet
  facet normal  0.000000e+000 -1.000000e+000  0.000000e+000
    outer loop
      vertex  1.476968e+001  1.154000e+003  2.139758e+001
      vertex  1.476968e+001  1.154000e+003 -2.139758e+001
      vertex  1.946128e+001  1.154000e+003 -1.724119e+001
    endloop
  endfacet
  facet normal  0.000000e+000 -1.000000e+000  0.000000e+000
    outer loop
      vertex  1.476968e+001  1.154000e+003  2.139758e+001
      vertex  1.946128e+001  1.154000e+003 -1.724119e+001
      vertex  1.946128e+001  1.154000e+003  1.724119e+001
    endloop
  endfacet
  facet normal  0.000000e+000 -1.000000e+000  0.000000e+000
    outer loop
      vertex  1.946128e+001  1.154000e+003  1.724119e+001
      vertex  1.946128e+001  1.154000e+003 -1.724119e+001
      vertex  2.302186e+001  1.154000e+003 -1.208280e+001
    endloop
  endfacet
  facet normal  0.000000e+000 -9.999999e-001  0.000000e+000
    outer loop
      vertex  1.946128e+001  1.154000e+003  1.724119e+001
      vertex  2.302186e+001  1.154000e+003 -1.208280e+001
      vertex  2.302186e+001  1.154000e+003  1.208280e+001
    endloop
  endfacet
  facet normal  0.000000e+000 -1.000000e+000  0.000000e+000
    outer loop
      vertex  2.302186e+001  1.154000e+003  1.208280e+001
      vertex  2.302186e+001  1.154000e+003 -1.208280e+001
      vertex  2.524449e+001  1.154000e+003 -6.222207e+000
    endloop
  endfacet
  facet normal  0.000000e+000 -9.999999e-001  0.000000e+000
    outer loop
      vertex  2.302186e+001  1.154000e+003  1.208280e+001
      vertex  2.524449e+001  1.154000e+003 -6.222207e+000
      vertex  2.524449e+001  1.154000e+003  6.222207e+000
    endloop
  endfacet
endsolid CATIA STL
